# Blender 5.1.2
# www.blender.org
mtllib tux.mtl
o Cube
v -0.650952 -2.096977 0.641646
v -0.500000 2.104651 0.500000
v 0.649948 -2.097566 0.649948
v 0.500000 2.104652 0.500000
v 0.500000 2.104652 -0.500000
v -0.689396 0.230587 0.689625
v -1.066435 -1.155404 -1.066735
v 1.066735 -1.155404 -1.066435
v 0.696040 0.211371 -0.694344
v -0.634454 1.594762 0.640346
v -0.931697 -1.750310 -0.929733
v 0.001257 -2.172497 -0.752650
v 0.931732 -1.750349 -0.929572
v 0.931732 -1.750349 0.929572
v 0.001257 -2.172497 0.752650
v -0.007998 2.222970 0.606695
v -0.954067 -0.542791 0.954067
v 0.001822 0.245715 0.950545
v -0.954067 -0.542791 -0.954067
v 0.954067 -0.542791 -0.954067
v 0.954067 -0.542791 0.954067
v -0.931697 -1.750310 0.929733
v -1.466397 -1.154288 0.000249
v 0.000000 -1.154843 -1.466476
v 1.466476 -1.154843 0.000000
v -0.000000 -1.154843 1.466476
v -0.638992 1.595962 -0.634692
v 0.636401 1.606461 -0.636181
v 0.636401 1.606461 0.636181
v 0.952964 0.239194 -0.004048
v -0.878087 1.572450 -0.000000
v -0.000000 1.572450 -0.878087
v 0.878087 1.572450 -0.000000
v 0.000000 1.572450 0.878087
v 0.000000 -2.310939 -0.000000
v -1.276906 -1.750349 0.000000
v 1.276906 -1.750349 0.000000
v -0.765141 -2.170827 0.008021
v -0.493739 2.102804 -0.500567
v 0.644851 -2.091036 -0.654145
v 0.610227 2.226466 -0.001764
v -0.688969 0.231748 -0.689406
v -0.007998 2.222970 -0.606695
v -1.311842 -0.542791 0.000000
v -0.616929 2.215745 0.007610
v 0.752582 -2.177961 -0.000863
v 1.066735 -1.155404 1.066434
v 0.689634 0.228462 0.690573
v -0.945294 0.259668 0.000303
v 1.311842 -0.542791 -0.000000
v -0.650952 -2.096977 -0.641646
v -1.066651 -1.155515 1.066651
v 0.000314 0.258182 -0.945774
v 0.004433 2.448247 0.000000
v 0.000000 -0.542791 1.311842
v -0.000000 -0.542791 -1.311842
v 0.000896 -1.742386 -1.280221
v 0.000896 -1.742386 1.280221
v -1.620816 -1.344854 1.388684
v -1.620816 -1.283754 1.108167
v -0.678910 -1.009882 1.461645
v -0.678910 -0.948782 1.181128
v -1.126013 -2.204626 1.079009
v -1.571452 -1.752429 1.336066
v -1.839530 -1.036809 1.308867
v -1.571452 -1.676293 0.986511
v -0.940017 -2.093307 0.973968
v -0.442914 -1.278869 1.074827
v -0.463417 -1.944655 1.073817
v -0.693917 -0.629392 1.397607
v -0.442914 -1.354277 1.421035
v -1.162549 -1.166010 1.462449
v -1.828753 -1.441929 1.220627
v -1.010178 -1.470514 0.967733
v -0.435662 -0.946502 1.328537
v -1.010178 -1.573102 1.438725
v -1.297482 -0.750529 1.371222
v -1.162549 -1.090433 1.115463
v -0.802817 -2.100638 1.184895
v -0.761881 -2.201117 1.055267
v -1.394593 -1.074864 1.300578
v -1.002952 -1.077774 1.136935
v -0.490235 -1.893271 1.209473
v -1.002952 -1.145569 1.448187
v -1.009724 -0.937993 1.330390
v 0.586744 -1.932059 1.202980
v 0.724888 -1.009882 1.461645
v 0.521575 -1.963126 1.082599
v 0.724888 -0.948782 1.181128
v 1.666794 -1.344854 1.388684
v 1.666794 -1.283754 1.108167
v 0.499522 -1.354866 1.422660
v 0.739895 -0.629392 1.397607
v 0.499522 -1.278729 1.073105
v 0.848954 -2.055885 0.979159
v 1.625721 -1.683162 0.986768
v 1.191722 -2.187312 1.020963
v 1.885508 -1.036809 1.308867
v 1.625721 -1.758570 1.332976
v 1.198357 -1.162394 1.463237
v 0.481640 -0.946502 1.328537
v 1.056156 -1.470514 0.967733
v 1.874730 -1.441929 1.220627
v 1.056156 -1.573102 1.438725
v 1.343460 -0.750529 1.371222
v 1.198357 -1.086816 1.116251
v 0.848954 -2.100694 1.184882
v 0.799473 -2.198135 1.055917
v 1.055702 -0.937993 1.330390
v 1.331502 -1.178266 1.115047
v 1.222008 -2.137161 1.156350
v 1.331502 -1.246060 1.426299
v 1.440570 -1.074864 1.300578
v -0.321791 0.998325 1.013833
v -0.321791 1.338983 1.013833
v 0.321791 0.998325 1.013833
v 0.321791 1.338983 1.013833
v -0.392307 0.961000 0.692041
v -0.392307 1.168654 1.084349
v -0.392307 1.376308 0.692041
v 0.392307 0.961000 0.692041
v 0.392307 1.376308 0.692041
v 0.392308 1.168654 1.084349
v -0.000000 0.961000 1.084349
v -0.000000 1.490925 1.084349
v -0.540292 1.168654 0.692041
v 0.540292 1.168654 0.692041
v -0.000000 1.168654 1.232333
v 0.000000 0.882669 0.692041
v -0.000000 1.569255 0.692041
v -0.334595 1.833683 0.688896
v -0.432273 1.787076 0.688896
v -0.492641 1.665057 0.688896
v -0.492641 1.514235 0.688896
v -0.432273 1.392216 0.688896
v -0.334595 1.345609 0.688896
v -0.236917 1.392216 0.688896
v -0.176549 1.514235 0.688896
v -0.176549 1.665057 0.688896
v -0.236917 1.787076 0.688896
v 0.320357 1.833683 0.688896
v 0.222679 1.787076 0.688896
v 0.162311 1.665057 0.688896
v 0.162311 1.514235 0.688896
v 0.222679 1.392216 0.688896
v 0.320357 1.345609 0.688896
v 0.418035 1.392216 0.688896
v 0.478403 1.514235 0.688896
v 0.478403 1.665057 0.688896
v 0.418035 1.787076 0.688896
vn -0.3203 0.3614 -0.8757
vn 0.8787 0.3590 -0.3146
vn -0.1790 -0.9676 -0.1783
vn -0.2807 0.9198 0.2742
vn 0.2736 0.9192 0.2833
vn 0.9112 0.2302 -0.3417
vn -0.3417 0.2302 -0.9112
vn -0.9111 0.2304 0.3418
vn -0.6739 -0.7114 -0.1993
vn -0.1936 -0.7605 -0.6199
vn 0.6791 -0.7078 0.1945
vn -0.3353 -0.2829 0.8986
vn -0.8984 -0.2855 -0.3336
vn 0.2738 0.9185 -0.2852
vn -0.6709 -0.7129 0.2040
vn 0.9112 0.2302 0.3417
vn -0.1754 -0.9682 0.1784
vn -0.1367 -0.9813 -0.1356
vn -0.1936 -0.7605 0.6199
vn -0.3353 -0.2829 -0.8986
vn -0.3417 0.2302 0.9112
vn -0.1372 -0.9807 0.1390
vn -0.3159 0.3620 0.8770
vn -0.9341 0.0479 0.3537
vn -0.3540 0.0480 -0.9340
vn 0.9047 0.3235 0.2773
vn -0.2739 0.3217 0.9064
vn 0.1358 -0.9804 0.1425
vn 0.3230 0.8850 -0.3352
vn -0.3393 0.8975 -0.2817
vn 0.9112 0.2303 0.3417
vn -0.8987 -0.2811 -0.3366
vn -0.3363 -0.2851 -0.8976
vn -0.2361 -0.7270 0.6447
vn -0.6159 -0.7539 -0.2287
vn 0.9112 0.2303 -0.3417
vn 0.9040 0.3238 -0.2792
vn 0.6151 -0.7547 0.2284
vn 0.3248 0.8845 0.3351
vn -0.9112 0.2302 0.3417
vn -0.9041 0.3172 0.2863
vn -0.9356 0.0503 0.3494
vn -0.3282 0.8877 0.3229
vn -0.3363 -0.2851 0.8976
vn -0.2361 -0.7270 -0.6447
vn -0.3417 0.2303 -0.9112
vn -0.2937 0.8981 -0.3274
vn -0.2770 0.3192 -0.9063
vn -0.3499 0.0503 -0.9355
vn -0.7411 -0.6600 -0.1233
vn -0.0286 -0.0132 -0.9995
vn 0.0061 0.3104 -0.9506
vn 0.9995 -0.0308 0.0118
vn -0.1040 -0.1397 0.9847
vn 0.5874 -0.7115 0.3856
vn 0.0480 -0.7820 0.6214
vn 0.3199 0.3303 -0.8880
vn -0.0233 -0.4409 0.8973
vn -0.1040 0.2825 -0.9536
vn 0.0061 -0.1130 0.9936
vn 0.3903 -0.6639 0.6379
vn 0.2726 -0.2501 -0.9290
vn -0.9991 -0.0326 -0.0276
vn -0.1720 0.0417 -0.9842
vn 0.0696 0.2835 -0.9564
vn 0.7479 -0.6522 -0.1236
vn -0.0327 -0.0911 0.9953
vn 0.0559 -0.9403 0.3358
vn -0.3694 -0.3385 -0.8654
vn -0.1720 -0.3714 0.9124
vn -0.0327 0.3311 -0.9430
vn 0.0696 -0.1399 0.9877
vn -0.0307 -0.7918 0.6100
vn -0.0665 -0.4558 -0.8876
vn -0.8785 0.3529 0.3220
vn 0.3426 0.0537 -0.9379
vn 0.9351 0.0536 -0.3502
vn 0.3525 0.0505 0.9344
vn 0.3199 0.3303 0.8880
vn 0.1504 -0.9724 -0.1786
vn 0.3418 0.2300 0.9112
vn 0.3214 0.4030 0.8569
vn -0.3214 0.4030 0.8569
vn 0.8567 0.4035 0.3213
vn 0.3211 0.4047 -0.8562
vn 0.3418 0.2300 -0.9112
vn -0.8569 0.4031 -0.3213
vn -0.9112 0.2300 -0.3418
vn -0.8987 -0.2814 0.3365
vn -0.6199 -0.7501 0.2302
vn 0.3359 -0.2842 -0.8980
vn 0.1912 -0.7607 -0.6203
vn 0.6398 -0.7309 -0.2376
vn 0.8986 -0.2814 -0.3367
vn 0.1863 -0.7614 0.6209
vn 0.3359 -0.2842 0.8980
vn 0.8566 0.4037 -0.3212
vn -0.9353 0.0478 -0.3506
vn -0.8847 0.3384 -0.3207
vn 0.8983 -0.2860 0.3336
vn -0.8569 0.4031 0.3213
vn 0.9336 0.0514 0.3547
vn 0.1714 -0.9690 0.1780
vn -0.3214 0.4028 -0.8570
vn 0.8782 0.3605 0.3143
vn -0.3537 0.0505 0.9340
vn -0.5691 -0.1727 0.8039
vn -0.5691 0.1773 -0.8029
vn -0.2701 -0.3824 -0.8836
vn 0.4321 0.5412 -0.7214
vn -0.1443 0.3077 -0.9405
vn 0.4321 0.1922 0.8811
vn 0.9486 -0.1843 0.2573
vn 0.1741 -0.3706 0.9123
vn 0.0399 -0.0228 0.9989
vn 0.0144 0.8107 -0.5853
vn -0.0906 -0.5581 0.8248
vn -0.3332 0.8082 -0.4856
vn -0.3332 0.5330 0.7778
vn 0.0144 0.4939 0.8694
vn -0.3379 0.1432 0.9302
vn -0.5739 -0.0066 0.8189
vn -0.5739 0.3346 -0.7475
vn -0.0434 -0.6463 -0.7618
vn -0.1443 -0.1113 0.9833
vn -0.3379 0.5171 -0.7864
vn 0.2012 0.0129 -0.9795
vn 0.0399 0.3947 -0.9179
vn -0.7978 -0.3160 0.5135
vn -0.4345 0.1842 0.8817
vn -0.4345 0.5342 -0.7252
vn 0.5722 0.1841 -0.7992
vn -0.0459 0.3753 -0.9257
vn 0.5722 -0.1650 0.8033
vn 0.6461 -0.7514 0.1338
vn 0.0254 -0.4415 0.8969
vn 0.1529 -0.0914 0.9840
vn 0.4402 0.6490 -0.6205
vn -0.1773 -0.3734 0.9106
vn 0.1859 0.8606 -0.4742
vn 0.1859 0.5854 0.7892
vn 0.4402 0.3322 0.8342
vn -0.5421 -0.6947 0.4728
vn -0.3317 0.3155 0.8891
vn -0.3317 0.6567 -0.6773
vn -0.0417 0.2782 0.9596
vn -0.0459 -0.0437 0.9980
vn -0.3071 -0.0231 -0.9514
vn -0.0417 0.6521 -0.7570
vn 0.1001 -0.0548 -0.9935
vn 0.1529 0.3261 -0.9329
vn -0.7908 -0.5636 0.2387
vn -0.8255 0.4707 0.3114
vn 0.8255 0.4707 0.3114
vn 0.7908 -0.5636 0.2387
vn 0.2387 -0.5636 0.7908
vn 0.3114 0.4707 0.8255
vn -0.3114 0.4707 0.8255
vn -0.2387 -0.5636 0.7908
vn 0.1548 -0.9688 0.1934
vn -0.1934 -0.9688 0.1548
vn -0.4515 0.8750 0.1747
vn 0.4327 0.8798 0.1969
vn 0.2731 0.3732 -0.8866
vn 0.3526 0.0482 -0.9345
vn 0.9344 0.0546 -0.3521
vn 0.3542 0.0515 0.9337
vn 0.2731 0.3732 0.8866
vn 0.1716 -0.9725 -0.1577
vn 0.3417 0.2302 0.9112
vn 0.3338 0.3920 0.8572
vn -0.3322 0.3935 0.8572
vn 0.8570 0.3950 0.3310
vn 0.3359 0.3914 -0.8567
vn 0.3417 0.2302 -0.9112
vn -0.8572 0.3917 -0.3344
vn -0.9112 0.2302 -0.3417
vn -0.8984 -0.2857 0.3336
vn 0.3367 -0.2830 -0.8981
vn 0.2378 -0.7239 -0.6477
vn 0.6191 -0.7587 -0.2030
vn 0.8983 -0.2860 -0.3336
vn 0.2395 -0.7194 0.6520
vn 0.3367 -0.2830 0.8981
vn 0.8571 0.3916 -0.3348
vn -0.9356 0.0483 -0.3497
vn -0.8841 0.3624 -0.2949
vn 0.8986 -0.2814 0.3367
vn -0.8572 0.3914 0.3347
vn 0.9345 0.0500 0.3524
vn -0.3339 0.3919 -0.8573
vn -0.3490 0.0479 0.9359
vn -0.5618 -0.1903 0.8051
vn -0.5618 0.1618 -0.8113
vn -0.7406 -0.6525 -0.1607
vn 0.4398 0.5180 -0.7337
vn 0.4398 0.1659 0.8827
vn 0.9995 -0.0225 -0.0208
vn 0.1723 -0.3730 0.9117
vn 0.0920 -0.0236 0.9955
vn 0.3240 0.6476 -0.6897
vn 0.0417 0.6521 -0.7570
vn 0.0417 0.2782 0.9596
vn 0.3240 0.3021 0.8965
vn -0.2338 0.4741 0.8489
vn -0.2338 0.7842 -0.5748
vn 0.1869 -0.0043 -0.9824
vn 0.0920 0.3926 -0.9151
vn -0.9991 -0.0416 0.0095
vn -0.4398 0.1659 0.8827
vn -0.4398 0.5180 -0.7337
vn 0.5618 0.1618 -0.8113
vn 0.5618 -0.1903 0.8051
vn 0.7487 -0.6442 -0.1562
vn 0.0225 -0.4422 0.8966
vn 0.1918 -0.1245 0.9735
vn 0.5606 0.3330 -0.7582
vn 0.3379 0.5171 -0.7864
vn 0.3379 0.1432 0.9302
vn 0.5606 -0.0125 0.8280
vn -0.3809 -0.6616 0.6460
vn 0.2348 0.4737 0.8488
vn 0.2348 0.7838 -0.5749
vn 0.0061 -0.0729 -0.9973
vn 0.1918 0.2916 -0.9371
vn -0.8255 -0.4707 0.3114
vn -0.7908 0.5636 0.2387
vn 0.7908 0.5636 0.2387
vn 0.8255 -0.4707 0.3114
vn 0.3114 -0.4707 0.8255
vn 0.3683 0.3880 0.8449
vn -0.3683 0.3880 0.8449
vn -0.3114 -0.4707 0.8255
vn 0.1934 -0.9688 0.1548
vn -0.1548 -0.9688 0.1934
vn -0.4327 0.8798 0.1969
vn 0.4515 0.8750 0.1747
vt 0.625000 0.373360
vt 0.575778 0.375000
vt 0.575776 0.249202
vt 0.645203 0.624926
vt 0.577837 0.625000
vt 0.576297 0.500355
vt 0.250151 0.502783
vt 0.247396 0.625000
vt 0.126162 0.626606
vt 0.875017 0.626527
vt 0.875000 0.750000
vt 0.751638 0.749869
vt 0.625000 0.750000
vt 0.437500 0.500018
vt 0.467933 0.625000
vt 0.437500 0.625000
vt 0.437500 0.250018
vt 0.467933 0.375000
vt 0.437500 0.375000
vt 0.437500 0.000017
vt 0.468069 0.125000
vt 0.437500 0.124977
vt 0.406250 0.249680
vt 0.375000 0.249539
vt 0.375000 0.123394
vt 0.406250 0.375243
vt 0.375000 0.375000
vt 0.405594 0.749660
vt 0.375000 0.750000
vt 0.348938 0.624901
vt 0.437500 0.999982
vt 0.406250 1.000000
vt 0.406250 0.874757
vt 0.406250 0.125000
vt 0.625000 0.500000
vt 0.751638 0.500131
vt 0.375000 0.000000
vt 0.406250 0.000320
vt 0.437500 0.749983
vt 0.250151 0.747217
vt 0.124539 0.500000
vt 0.375000 0.875000
vt 0.375000 1.000461
vt 0.468069 0.875000
vt 0.437500 0.875000
vt 0.124539 0.750000
vt 0.575505 0.875000
vt 0.625000 0.876640
vt 0.574152 0.999224
vt 0.508129 0.125001
vt 0.574141 -0.000243
vt 0.575505 0.125000
vt 0.508031 0.375002
vt 0.576297 0.749645
vt 0.625000 1.000000
vt 0.751529 0.625000
vt 0.874995 0.499509
vt 0.468750 1.000000
vt 0.467933 0.750000
vt 0.467933 0.500000
vt 0.403646 0.625000
vt 0.468750 0.000000
vt 0.625000 0.000000
vt 0.625000 0.123473
vt 0.508178 0.000000
vt 0.467933 0.250000
vt 0.625000 0.250491
vt 0.506794 0.249999
vt 0.375000 0.100943
vt 0.500000 0.000000
vt 0.500000 0.125000
vt 0.375000 0.318751
vt 0.500000 0.253356
vt 0.500000 0.375000
vt 0.500000 0.498717
vt 0.625000 0.437500
vt 0.380874 0.596253
vt 0.500000 0.625000
vt 0.500000 0.996644
vt 0.625000 0.880205
vt 0.249001 0.625000
vt 0.375000 0.724459
vt 0.125000 0.649057
vt 0.250197 0.750000
vt 0.500000 0.875000
vt 0.375000 0.874803
vt 0.625000 0.250000
vt 0.625000 0.369795
vt 0.500000 0.751283
vt 0.625000 0.812500
vt 0.400541 0.750000
vt 0.193751 0.500000
vt 0.500000 0.253356
vt 0.375000 0.149057
vt 0.375000 0.375197
vt 0.500000 0.498717
vt 0.380874 0.596253
vt 0.500000 0.996644
vt 0.249001 0.625000
vt 0.375000 0.724459
vt 0.125000 0.600943
vt 0.250197 0.500000
vt 0.375000 0.874803
vt 0.625000 0.369795
vt 0.500000 0.751283
vt 0.400541 0.750000
vt 0.250197 0.750000
vt 0.505752 0.500001
vt 0.507052 0.625000
vt 0.506622 0.749999
vt 0.375222 0.498935
vt 0.508179 0.999999
vt 0.405594 0.500341
vt 0.507433 0.875000
vt 0.755206 0.500000
vt 0.687500 0.625000
vt 0.687500 0.500000
vt 0.375000 1.000000
vt 0.875000 0.500000
vt 0.812500 0.625000
vt 0.755205 0.750000
vt 0.687500 0.750000
vt 0.625000 0.625000
vt 0.750000 0.625000
vt 0.375000 0.525541
vt 0.755205 0.500000
vt 0.755205 0.750000
vt 0.125000 0.750000
vt 0.375000 0.125000
vt 0.500000 0.750000
vt 0.375000 0.625000
vt 0.500000 1.000000
vt 0.250000 0.625000
vt 0.250000 0.750000
vt 0.125000 0.625000
vt 0.750000 0.750000
vt 0.625000 0.125000
vt 0.875000 0.625000
vt 0.625000 0.875000
s 0
g off
f 43/1/1 32/2/1 27/3/1
f 41/4/2 33/5/2 28/6/2
f 12/7/3 35/8/3 38/9/3
f 45/10/4 2/11/4 16/12/4
f 16/12/5 4/13/5 41/4/5
f 8/14/6 50/15/6 25/16/6
f 7/17/7 56/18/7 24/19/7
f 52/20/8 44/21/8 23/22/8
f 11/23/9 51/24/9 38/25/9
f 57/26/10 12/27/10 51/24/10
f 14/28/11 3/29/11 46/30/11
f 52/31/12 22/32/12 58/33/12
f 36/34/13 23/22/13 11/23/13
f 5/35/14 43/36/14 41/4/14
f 1/37/15 22/38/15 38/25/15
f 50/15/16 47/39/16 25/16/16
f 35/8/17 15/40/17 38/9/17
f 51/41/18 12/7/18 38/9/18
f 15/42/19 58/33/19 1/43/19
f 11/23/20 7/17/20 57/26/20
f 55/44/21 52/31/21 26/45/21
f 15/40/22 1/46/22 38/9/22
f 34/47/23 16/48/23 10/49/23
f 49/50/24 10/51/24 31/52/24
f 53/53/25 27/3/25 32/2/25
f 29/54/26 41/4/26 4/13/26
f 10/49/27 16/48/27 2/55/27
f 3/29/28 15/40/28 46/30/28
f 41/4/29 43/36/29 54/56/29
f 39/57/30 45/10/30 54/56/30
f 52/31/21 55/44/21 17/58/21
f 47/39/31 50/15/31 21/59/31
f 23/22/32 7/17/32 11/23/32
f 7/17/33 24/19/33 57/26/33
f 58/33/34 22/32/34 1/43/34
f 38/25/35 36/34/35 11/23/35
f 20/60/36 50/15/36 8/14/36
f 5/35/37 41/4/37 28/6/37
f 46/30/38 37/61/38 14/28/38
f 41/4/39 54/56/39 16/12/39
f 17/62/40 44/21/40 52/20/40
f 10/51/41 2/63/41 45/64/41
f 6/65/42 10/51/42 49/50/42
f 54/56/43 45/10/43 16/12/43
f 58/33/44 26/45/44 52/31/44
f 51/24/45 11/23/45 57/26/45
f 19/66/46 56/18/46 7/17/46
f 43/36/47 39/57/47 54/56/47
f 27/3/48 39/67/48 43/1/48
f 42/68/49 27/3/49 53/53/49
f 63/69/50 64/70/50 73/71/50
f 67/72/51 66/73/51 74/74/51
f 62/35/52 68/75/52 82/76/52
f 69/77/53 68/75/53 75/78/53
f 59/55/54 64/79/54 72/80/54
f 80/81/55 69/77/55 83/82/55
f 63/83/56 80/81/56 79/84/56
f 32/2/57 5/35/57 28/6/57
f 76/85/58 64/79/58 79/86/58
f 66/73/59 60/87/59 78/88/59
f 71/89/60 61/13/60 84/90/60
f 80/81/61 83/91/61 79/84/61
f 67/92/62 69/77/62 80/81/62
f 94/93/63 88/94/63 101/71/63
f 95/95/64 94/93/64 102/74/64
f 91/35/65 96/96/65 110/76/65
f 97/97/66 96/96/66 103/78/66
f 87/55/67 92/98/67 100/80/67
f 108/99/68 97/97/68 111/100/68
f 108/99/69 88/101/69 95/102/69
f 104/85/70 92/98/70 107/103/70
f 94/93/71 89/87/71 106/104/71
f 99/105/72 90/13/72 112/90/72
f 108/99/73 111/106/73 107/107/73
f 95/102/74 97/97/74 108/99/74
f 31/52/75 10/51/75 45/64/75
f 53/53/76 28/6/76 9/108/76
f 9/108/77 33/5/77 30/109/77
f 34/47/78 48/110/78 29/54/78
f 4/13/79 34/47/79 29/54/79
f 40/111/80 35/8/80 12/7/80
f 21/59/81 26/45/81 47/39/81
f 48/110/82 55/44/82 21/59/82
f 55/44/83 6/112/83 17/58/83
f 50/15/84 48/110/84 21/59/84
f 56/18/85 9/108/85 20/60/85
f 24/19/86 20/60/86 8/14/86
f 44/21/87 42/68/87 19/66/87
f 23/22/88 19/66/88 7/17/88
f 23/22/89 22/38/89 52/20/89
f 38/25/90 22/38/90 36/34/90
f 24/19/91 13/113/91 57/26/91
f 57/26/92 40/111/92 12/27/92
f 37/61/93 40/111/93 13/113/93
f 25/16/94 13/113/94 8/14/94
f 3/29/95 58/33/95 15/42/95
f 14/28/96 26/45/96 58/33/96
f 9/108/97 50/15/97 20/60/97
f 27/3/98 49/50/98 31/52/98
f 31/52/99 39/67/99 27/3/99
f 25/16/100 14/28/100 37/61/100
f 6/65/101 44/21/101 17/62/101
f 33/5/102 48/110/102 30/109/102
f 46/30/103 15/40/103 35/8/103
f 42/68/104 56/18/104 19/66/104
f 41/4/105 29/54/105 33/5/105
f 34/47/106 6/112/106 18/114/106
f 59/63/107 73/71/107 64/70/107
f 73/71/108 60/87/108 66/73/108
f 63/69/109 66/73/109 67/72/109
f 62/35/110 75/78/110 68/75/110
f 74/74/111 66/73/111 78/88/111
f 75/78/112 61/13/112 71/89/112
f 69/77/113 71/89/113 83/82/113
f 83/82/114 76/85/114 79/86/114
f 84/90/115 76/85/115 71/89/115
f 78/115/116 85/116/116 82/117/116
f 63/118/117 79/86/117 64/79/117
f 60/119/118 81/120/118 78/115/118
f 81/120/119 59/11/119 72/121/119
f 85/116/120 72/121/120 84/122/120
f 85/116/121 61/13/121 70/123/121
f 72/121/122 77/124/122 81/120/122
f 81/120/123 77/124/123 78/115/123
f 80/81/124 63/83/124 67/92/124
f 72/80/125 64/79/125 76/85/125
f 62/35/126 85/116/126 70/123/126
f 74/74/127 69/125/127 67/72/127
f 74/74/128 82/76/128 68/75/128
f 92/70/129 88/94/129 86/37/129
f 87/63/130 101/71/130 92/70/130
f 101/71/131 89/87/131 94/93/131
f 91/35/132 103/78/132 96/96/132
f 102/74/133 94/93/133 106/104/133
f 103/78/134 90/13/134 99/105/134
f 97/97/135 99/105/135 111/100/135
f 111/100/136 104/85/136 107/103/136
f 112/90/137 104/85/137 99/105/137
f 106/126/138 113/116/138 110/117/138
f 86/118/139 107/103/139 92/98/139
f 89/119/140 109/120/140 106/126/140
f 109/120/141 87/11/141 100/127/141
f 113/116/142 100/127/142 112/122/142
f 108/99/143 86/128/143 88/101/143
f 100/127/144 105/124/144 109/120/144
f 109/120/145 105/124/145 106/126/145
f 113/116/146 90/13/146 98/123/146
f 100/80/147 92/98/147 104/85/147
f 94/93/148 95/95/148 88/94/148
f 91/35/149 113/116/149 98/123/149
f 102/74/150 97/125/150 95/95/150
f 102/74/151 110/76/151 96/96/151
f 114/37/152 126/71/152 118/129/152
f 115/63/153 126/71/153 119/70/153
f 127/78/154 117/13/154 123/130/154
f 127/78/155 116/29/155 121/131/155
f 116/29/156 128/85/156 124/42/156
f 117/13/157 128/85/157 123/130/157
f 128/85/158 115/55/158 119/132/158
f 128/85/159 114/118/159 124/42/159
f 129/133/160 116/29/160 124/134/160
f 129/133/161 114/128/161 118/135/161
f 130/124/162 115/11/162 125/136/162
f 130/124/163 117/13/163 122/123/163
f 32/2/164 43/1/164 5/35/164
f 53/53/165 32/2/165 28/6/165
f 9/108/166 28/6/166 33/5/166
f 34/47/167 18/114/167 48/110/167
f 4/13/168 16/48/168 34/47/168
f 40/111/169 46/30/169 35/8/169
f 21/59/170 55/44/170 26/45/170
f 48/110/171 18/114/171 55/44/171
f 55/44/172 18/114/172 6/112/172
f 50/15/173 30/109/173 48/110/173
f 56/18/174 53/53/174 9/108/174
f 24/19/175 56/18/175 20/60/175
f 44/21/176 49/50/176 42/68/176
f 23/22/177 44/21/177 19/66/177
f 23/22/178 36/34/178 22/38/178
f 24/19/179 8/14/179 13/113/179
f 57/26/180 13/113/180 40/111/180
f 37/61/181 46/30/181 40/111/181
f 25/16/182 37/61/182 13/113/182
f 3/29/183 14/28/183 58/33/183
f 14/28/184 47/39/184 26/45/184
f 9/108/185 30/109/185 50/15/185
f 27/3/186 42/68/186 49/50/186
f 31/52/187 45/64/187 39/67/187
f 25/16/188 47/39/188 14/28/188
f 6/65/189 49/50/189 44/21/189
f 33/5/190 29/54/190 48/110/190
f 42/68/191 53/53/191 56/18/191
f 34/47/192 10/49/192 6/112/192
f 59/63/193 65/137/193 73/71/193
f 73/71/194 65/137/194 60/87/194
f 63/69/195 73/71/195 66/73/195
f 62/35/196 70/123/196 75/78/196
f 75/78/197 70/123/197 61/13/197
f 69/77/198 75/78/198 71/89/198
f 83/82/199 71/89/199 76/85/199
f 84/90/200 72/80/200 76/85/200
f 78/115/201 77/124/201 85/116/201
f 60/119/202 65/138/202 81/120/202
f 81/120/203 65/138/203 59/11/203
f 85/116/204 77/124/204 72/121/204
f 85/116/205 84/122/205 61/13/205
f 62/35/206 82/117/206 85/116/206
f 74/74/207 68/75/207 69/125/207
f 74/74/208 78/88/208 82/76/208
f 92/70/209 101/71/209 88/94/209
f 87/63/210 93/137/210 101/71/210
f 101/71/211 93/137/211 89/87/211
f 91/35/212 98/123/212 103/78/212
f 103/78/213 98/123/213 90/13/213
f 97/97/214 103/78/214 99/105/214
f 111/100/215 99/105/215 104/85/215
f 112/90/216 100/80/216 104/85/216
f 106/126/217 105/124/217 113/116/217
f 89/119/218 93/138/218 109/120/218
f 109/120/219 93/138/219 87/11/219
f 113/116/220 105/124/220 100/127/220
f 108/99/221 107/107/221 86/128/221
f 113/116/222 112/122/222 90/13/222
f 91/35/223 110/117/223 113/116/223
f 102/74/224 96/96/224 97/125/224
f 102/74/225 106/104/225 110/76/225
f 114/37/226 119/70/226 126/71/226
f 115/63/227 120/137/227 126/71/227
f 127/78/228 122/123/228 117/13/228
f 127/78/229 123/130/229 116/29/229
f 116/29/230 123/130/230 128/85/230
f 117/13/231 125/139/231 128/85/231
f 128/85/232 125/139/232 115/55/232
f 128/85/233 119/132/233 114/118/233
f 129/133/234 121/131/234 116/29/234
f 129/133/235 124/134/235 114/128/235
f 130/124/236 120/138/236 115/11/236
f 130/124/237 125/136/237 117/13/237
l 132 131
l 133 132
l 134 133
l 135 134
l 136 135
l 137 136
l 138 137
l 139 138
l 140 139
l 131 140
l 142 141
l 143 142
l 144 143
l 145 144
l 146 145
l 147 146
l 148 147
l 149 148
l 150 149
l 141 150
